<?xml version="1.0" encoding="utf-8"?>
<!-- Generator: Adobe Illustrator 16.0.0, SVG Export Plug-In . SVG Version: 6.00 Build 0)  -->
<!DOCTYPE svg PUBLIC "-//W3C//DTD SVG 1.1//EN" "http://www.w3.org/Graphics/SVG/1.1/DTD/svg11.dtd">
<svg version="1.1" id="Layer_1" xmlns="http://www.w3.org/2000/svg" xmlns:xlink="http://www.w3.org/1999/xlink" x="0px" y="0px"
	 width="230px" height="120px" viewBox="0 0 230 120" enable-background="new 0 0 230 120" xml:space="preserve">
<g>
	<g>
		<rect x="5" y="2.5" fill-rule="evenodd" clip-rule="evenodd" fill="#FFFFFF" width="25" height="45"/>
		<path d="M30,48H5c-0.276,0-0.5-0.224-0.5-0.5v-45C4.5,2.224,4.724,2,5,2h25c0.276,0,0.5,0.224,0.5,0.5v45
			C30.5,47.776,30.276,48,30,48z M5.5,47h24V3h-24V47z"/>
	</g>
	<g>
		<rect x="200" y="2.5" fill-rule="evenodd" clip-rule="evenodd" fill="#FFFFFF" width="25" height="45"/>
		<path d="M225,48h-25c-0.276,0-0.5-0.224-0.5-0.5v-45c0-0.276,0.224-0.5,0.5-0.5h25c0.276,0,0.5,0.224,0.5,0.5v45
			C225.5,47.776,225.276,48,225,48z M200.5,47h24V3h-24V47z"/>
	</g>
	<g>
		
			<rect x="152.523" y="76.938" transform="matrix(-0.2675 -0.9636 0.9636 -0.2675 113.3447 285.0442)" fill-rule="evenodd" clip-rule="evenodd" fill="#FFFFFF" width="25.001" height="45"/>
		<path d="M146.687,118c-0.22,0-0.42-0.145-0.481-0.366l-6.687-24.09c-0.036-0.128-0.02-0.265,0.046-0.38s0.174-0.2,0.302-0.235
			l43.36-12.035c0.271-0.074,0.541,0.082,0.615,0.348l6.687,24.09c0.036,0.128,0.02,0.265-0.046,0.38s-0.174,0.2-0.302,0.235
			l-43.36,12.035C146.775,117.994,146.73,118,146.687,118z M140.615,93.758l6.419,23.127l42.397-11.768l-6.419-23.127
			L140.615,93.758z"/>
	</g>
	<g>
		
			<rect x="52.5" y="77.06" transform="matrix(0.261 -0.9653 0.9653 0.261 -48.0742 136.3202)" fill-rule="evenodd" clip-rule="evenodd" fill="#FFFFFF" width="25" height="45"/>
		<path d="M83.457,118c-0.044,0-0.088-0.006-0.131-0.018l-43.439-11.747c-0.267-0.072-0.424-0.347-0.352-0.613l6.525-24.134
			c0.034-0.128,0.118-0.236,0.233-0.303c0.115-0.065,0.253-0.083,0.38-0.049l43.439,11.747c0.267,0.072,0.424,0.347,0.352,0.613
			l-6.525,24.134c-0.034,0.128-0.118,0.236-0.233,0.303C83.63,117.978,83.544,118,83.457,118z M40.631,105.4l42.474,11.486
			l6.265-23.168L46.896,82.232L40.631,105.4z"/>
	</g>
	<g>
		<path d="M12.596,25.948v-7.347h1.513v7.311c0,2.196,1.17,3.583,3.385,3.583s3.403-1.387,3.403-3.583v-7.311h1.513v7.328
			c0,2.989-1.657,4.897-4.916,4.897C14.252,30.827,12.596,28.9,12.596,25.948z"/>
	</g>
	<g>
		<path d="M207.596,25.948v-7.347h1.513v7.311c0,2.196,1.17,3.583,3.385,3.583s3.403-1.387,3.403-3.583v-7.311h1.513v7.328
			c0,2.989-1.657,4.897-4.916,4.897C209.252,30.827,207.596,28.9,207.596,25.948z"/>
	</g>
	<g>
		<path d="M60.096,100.508v-7.347h1.513v7.311c0,2.196,1.17,3.583,3.385,3.583s3.403-1.387,3.403-3.583v-7.311h1.513v7.328
			c0,2.989-1.657,4.897-4.916,4.897C61.752,105.387,60.096,103.46,60.096,100.508z"/>
	</g>
	<g>
		<path d="M160.119,100.386v-7.347h1.513v7.311c0,2.196,1.17,3.583,3.385,3.583s3.403-1.387,3.403-3.583v-7.311h1.513v7.328
			c0,2.989-1.657,4.897-4.916,4.897C161.775,105.265,160.119,103.338,160.119,100.386z"/>
	</g>
</g>
</svg>
