<?xml version="1.0" encoding="utf-8"?>
<!-- Generator: Adobe Illustrator 16.0.0, SVG Export Plug-In . SVG Version: 6.00 Build 0)  -->
<!DOCTYPE svg PUBLIC "-//W3C//DTD SVG 1.1//EN" "http://www.w3.org/Graphics/SVG/1.1/DTD/svg11.dtd">
<svg version="1.1" xmlns="http://www.w3.org/2000/svg" xmlns:xlink="http://www.w3.org/1999/xlink" x="0px" y="0px" width="625px"
	 height="655px" viewBox="0 0 625 655" enable-background="new 0 0 625 655" xml:space="preserve">
<g id="CONNECTIONS">
	<polyline fill-rule="evenodd" clip-rule="evenodd" fill="none" stroke="#000000" stroke-miterlimit="10" points="202.647,650 
		110,650 110,105 260,105 	"/>
	<polyline fill-rule="evenodd" clip-rule="evenodd" fill="none" stroke="#000000" stroke-miterlimit="10" points="260,180 195,180 
		195,650 620,650 	"/>
	
		<line fill-rule="evenodd" clip-rule="evenodd" fill="none" stroke="#000000" stroke-linecap="round" stroke-linejoin="round" stroke-miterlimit="10" stroke-dasharray="3,2" x1="345" y1="330" x2="620" y2="330"/>
	<polyline fill-rule="evenodd" clip-rule="evenodd" fill="none" stroke="#000000" stroke-miterlimit="10" points="345,235 345,610 
		425,610 	"/>
	<g>
		<g>
			<line fill="none" stroke="#000000" stroke-linecap="round" stroke-linejoin="round" x1="575" y1="170" x2="573.5" y2="170"/>
			
				<line fill="none" stroke="#000000" stroke-linecap="round" stroke-linejoin="round" stroke-dasharray="3,2" x1="571.5" y1="170" x2="482.5" y2="170"/>
			<polyline fill="none" stroke="#000000" stroke-linecap="round" stroke-linejoin="round" points="481.5,170 480,170 480,168.5 			
				"/>
			<line fill="none" stroke="#000000" stroke-linecap="round" stroke-linejoin="round" x1="480" y1="166.5" x2="480" y2="165"/>
		</g>
	</g>
	<g>
		<g>
			<line fill="none" stroke="#000000" stroke-linecap="round" stroke-linejoin="round" x1="430" y1="115" x2="431.5" y2="115"/>
			
				<line fill="none" stroke="#000000" stroke-linecap="round" stroke-linejoin="round" stroke-dasharray="3,2" x1="433.5" y1="115" x2="572.5" y2="115"/>
			<polyline fill="none" stroke="#000000" stroke-linecap="round" stroke-linejoin="round" points="573.5,115 575,115 575,116.5 			
				"/>
			
				<line fill="none" stroke="#000000" stroke-linecap="round" stroke-linejoin="round" stroke-dasharray="3,2" x1="575" y1="118.5" x2="575" y2="167.5"/>
			<line fill="none" stroke="#000000" stroke-linecap="round" stroke-linejoin="round" x1="575" y1="168.5" x2="575" y2="170"/>
		</g>
	</g>
	<g>
		<g>
			<line fill="none" stroke="#000000" stroke-linecap="round" stroke-linejoin="round" x1="430" y1="95" x2="431.5" y2="95"/>
			
				<line fill="none" stroke="#000000" stroke-linecap="round" stroke-linejoin="round" stroke-dasharray="3,2" x1="433.5" y1="95" x2="497.5" y2="95"/>
			<polyline fill="none" stroke="#000000" stroke-linecap="round" stroke-linejoin="round" points="498.5,95 500,95 500,93.5 			"/>
			
				<line fill="none" stroke="#000000" stroke-linecap="round" stroke-linejoin="round" stroke-dasharray="3,2" x1="500" y1="91.5" x2="500" y2="77.5"/>
			<line fill="none" stroke="#000000" stroke-linecap="round" stroke-linejoin="round" x1="500" y1="76.5" x2="500" y2="75"/>
		</g>
	</g>
	
		<line fill-rule="evenodd" clip-rule="evenodd" fill="none" stroke="#000000" stroke-miterlimit="10" x1="575" y1="325" x2="575" y2="245"/>
	<polyline fill-rule="evenodd" clip-rule="evenodd" fill="none" stroke="#000000" stroke-miterlimit="10" points="575,335 575,385 
		345,385 	"/>
	
		<line fill-rule="evenodd" clip-rule="evenodd" fill="none" stroke="#000000" stroke-miterlimit="10" x1="575" y1="235" x2="575" y2="170"/>
	<g>
		<g>
			<line fill="none" stroke="#000000" stroke-linecap="round" stroke-linejoin="round" x1="575" y1="170" x2="576.5" y2="170"/>
			
				<line fill="none" stroke="#000000" stroke-linecap="round" stroke-linejoin="round" stroke-dasharray="3,2" x1="578.5" y1="170" x2="617.5" y2="170"/>
			<polyline fill="none" stroke="#000000" stroke-linecap="round" stroke-linejoin="round" points="618.5,170 620,170 620,168.5 			
				"/>
			
				<line fill="none" stroke="#000000" stroke-linecap="round" stroke-linejoin="round" stroke-dasharray="3,2" x1="620" y1="166.5" x2="620" y2="32.5"/>
			<line fill="none" stroke="#000000" stroke-linecap="round" stroke-linejoin="round" x1="620" y1="31.5" x2="620" y2="30"/>
		</g>
	</g>
	<g>
		<g>
			<line fill="none" stroke="#000000" stroke-linecap="round" stroke-linejoin="round" x1="430" y1="190" x2="431.5" y2="190"/>
			
				<line fill="none" stroke="#000000" stroke-linecap="round" stroke-linejoin="round" stroke-dasharray="3,2" x1="433.5" y1="190" x2="477.5" y2="190"/>
			<polyline fill="none" stroke="#000000" stroke-linecap="round" stroke-linejoin="round" points="478.5,190 480,190 480,191.5 			
				"/>
			
				<line fill="none" stroke="#000000" stroke-linecap="round" stroke-linejoin="round" stroke-dasharray="3,2" x1="480" y1="193.5" x2="480" y2="327.5"/>
			<line fill="none" stroke="#000000" stroke-linecap="round" stroke-linejoin="round" x1="480" y1="328.5" x2="480" y2="330"/>
		</g>
	</g>
	
		<line fill-rule="evenodd" clip-rule="evenodd" fill="none" stroke="#000000" stroke-linecap="round" stroke-linejoin="round" stroke-miterlimit="10" stroke-dasharray="3,2" x1="480" y1="240" x2="620" y2="240"/>
	
		<path fill-rule="evenodd" clip-rule="evenodd" fill="none" stroke="#000000" stroke-linecap="round" stroke-linejoin="round" stroke-miterlimit="10" d="
		M575,235c2.76,0,5,2.24,5,5s-2.24,5-5,5"/>
	
		<path fill-rule="evenodd" clip-rule="evenodd" fill="none" stroke="#000000" stroke-linecap="round" stroke-linejoin="round" stroke-miterlimit="10" d="
		M575,325c2.76,0,5,2.24,5,5s-2.24,5-5,5"/>
	<polyline fill-rule="evenodd" clip-rule="evenodd" fill="none" stroke="#000000" stroke-miterlimit="10" points="259.999,190 
		244.999,190 244.999,385 289.999,385 289.999,450 	"/>
	
		<line fill-rule="evenodd" clip-rule="evenodd" fill="none" stroke="#000000" stroke-miterlimit="10" x1="195" y1="475" x2="275" y2="475"/>
	<g>
		<g>
			<line fill="none" stroke="#000000" stroke-linecap="round" stroke-linejoin="round" x1="75" y1="450" x2="75" y2="448.5"/>
			
				<line fill="none" stroke="#000000" stroke-linecap="round" stroke-linejoin="round" stroke-dasharray="3,2" x1="75" y1="446.5" x2="75" y2="32.5"/>
			<polyline fill="none" stroke="#000000" stroke-linecap="round" stroke-linejoin="round" points="75,31.5 75,30 76.5,30 			"/>
			
				<line fill="none" stroke="#000000" stroke-linecap="round" stroke-linejoin="round" stroke-dasharray="3,2" x1="78.5" y1="30" x2="617.5" y2="30"/>
			<line fill="none" stroke="#000000" stroke-linecap="round" stroke-linejoin="round" x1="618.5" y1="30" x2="620" y2="30"/>
		</g>
	</g>
	
		<line fill-rule="evenodd" clip-rule="evenodd" fill="none" stroke="#000000" stroke-linecap="round" stroke-linejoin="round" stroke-miterlimit="10" x1="425" y1="385" x2="425" y2="650"/>
	
		<line fill-rule="evenodd" clip-rule="evenodd" fill="none" stroke="#000000" stroke-miterlimit="10" x1="39.999" y1="30" x2="4.999" y2="30"/>
</g>
<g id="TANKS">
	
		<rect x="375" y="450" fill-rule="evenodd" clip-rule="evenodd" fill="#FFFFFF" stroke="#000000" stroke-width="0.5" stroke-linecap="round" stroke-linejoin="round" stroke-miterlimit="1.5" width="100" height="5"/>
	
		<rect x="275" y="450" fill-rule="evenodd" clip-rule="evenodd" fill="#FFFFFF" stroke="#000000" stroke-width="0.5" stroke-linecap="round" stroke-linejoin="round" stroke-miterlimit="1.5" width="100" height="5"/>
	
		<rect x="270" y="455" fill-rule="evenodd" clip-rule="evenodd" fill="#FFFFFF" stroke="#000000" stroke-width="0.5" stroke-linecap="round" stroke-linejoin="round" stroke-miterlimit="1.5" width="210" height="5"/>
	
		<rect x="275" y="460" fill-rule="evenodd" clip-rule="evenodd" fill="#FFFFFF" stroke="#000000" stroke-width="0.5" stroke-linecap="round" stroke-linejoin="round" stroke-miterlimit="1.5" width="200" height="95"/>
	
		<line fill-rule="evenodd" clip-rule="evenodd" fill="#FFFFFF" stroke="#000000" stroke-width="0.5" stroke-linecap="round" stroke-linejoin="round" stroke-miterlimit="1.5" x1="375" y1="555" x2="375" y2="480"/>
	<g>
		<path d="M475,450v5h5v5h-5v95H275v-95h-5v-5h5v-5h100H475 M475,448H375H275c-1.104,0-2,0.896-2,2v3h-3c-1.104,0-2,0.896-2,2v5
			c0,1.104,0.896,2,2,2h3v93c0,1.104,0.896,2,2,2h200c1.104,0,2-0.896,2-2v-93h3c1.104,0,2-0.896,2-2v-5c0-1.104-0.896-2-2-2h-3v-3
			C477,448.896,476.104,448,475,448L475,448z"/>
	</g>
	
		<rect x="34.5" y="470" fill-rule="evenodd" clip-rule="evenodd" fill="#FFFFFF" stroke="#000000" stroke-width="0.5" stroke-linecap="round" stroke-linejoin="round" stroke-miterlimit="1.5" width="15" height="25"/>
	
		<rect x="45" y="450" fill-rule="evenodd" clip-rule="evenodd" fill="#FFFFFF" stroke="#000000" stroke-width="0.5" stroke-linecap="round" stroke-linejoin="round" stroke-miterlimit="1.5" width="95" height="5"/>
	
		<rect x="49.318" y="455" fill-rule="evenodd" clip-rule="evenodd" fill="#FFFFFF" stroke="#000000" stroke-width="0.5" stroke-linecap="round" stroke-linejoin="round" stroke-miterlimit="1.5" width="86.363" height="115"/>
	
		<rect x="49.318" y="570" fill-rule="evenodd" clip-rule="evenodd" fill="#FFFFFF" stroke="#000000" stroke-width="0.5" stroke-linecap="round" stroke-linejoin="round" stroke-miterlimit="1.5" width="86.363" height="5"/>
	
		<rect x="30" y="465" fill-rule="evenodd" clip-rule="evenodd" fill="#FFFFFF" stroke="#000000" stroke-width="0.5" stroke-linecap="round" stroke-linejoin="round" stroke-miterlimit="1.5" width="5" height="35"/>
	<g>
		<path d="M140,450v5h-4.318v115v5H49.318v-5v-75H35v5h-5v-35h5v5h14.318v-15H45v-5H140 M140,448H45c-1.104,0-2,0.896-2,2v5
			c0,1.104,0.896,2,2,2h2.318v11H37v-3c0-1.104-0.896-2-2-2h-5c-1.104,0-2,0.896-2,2v35c0,1.104,0.896,2,2,2h5c1.104,0,2-0.896,2-2
			v-3h10.318v73v5c0,1.104,0.896,2,2,2h86.363c1.104,0,2-0.896,2-2v-5V457H140c1.104,0,2-0.896,2-2v-5
			C142,448.896,141.104,448,140,448L140,448z"/>
	</g>
	
		<rect x="35" y="5" fill-rule="evenodd" clip-rule="evenodd" fill="#FFFFFF" stroke="#000000" stroke-width="0.5" stroke-linecap="round" stroke-linejoin="round" stroke-miterlimit="1.5" width="75" height="5"/>
	
		<rect x="39.318" y="10" fill-rule="evenodd" clip-rule="evenodd" fill="#FFFFFF" stroke="#000000" stroke-width="0.5" stroke-linecap="round" stroke-linejoin="round" stroke-miterlimit="1.5" width="66.363" height="65"/>
	
		<rect x="39.318" y="75" fill-rule="evenodd" clip-rule="evenodd" fill="#FFFFFF" stroke="#000000" stroke-width="0.5" stroke-linecap="round" stroke-linejoin="round" stroke-miterlimit="1.5" width="66.363" height="5"/>
	<g>
		<path d="M110,5v5h-4.318v65v5H39.318v-5V10H35V5H110 M110,3H35c-1.104,0-2,0.896-2,2v5c0,1.104,0.896,2,2,2h2.318v63v5
			c0,1.104,0.896,2,2,2h66.363c1.104,0,2-0.896,2-2v-5V12H110c1.104,0,2-0.896,2-2V5C112,3.896,111.104,3,110,3L110,3z"/>
	</g>
	
		<polygon fill-rule="evenodd" clip-rule="evenodd" fill="#FFFFFF" stroke="#000000" stroke-width="0.5" stroke-linecap="round" stroke-linejoin="round" stroke-miterlimit="10" points="
		430,80 430,200 355,220 355,235 335,235 335,220 260,200 260,80 275,65 415,65 	"/>
	
		<circle fill-rule="evenodd" clip-rule="evenodd" fill="none" stroke="#000000" stroke-width="0.5" stroke-linecap="round" stroke-linejoin="round" stroke-miterlimit="10" cx="344.999" cy="140" r="60"/>
	
		<polygon fill-rule="evenodd" clip-rule="evenodd" fill="none" stroke="#000000" stroke-width="2" stroke-linecap="round" stroke-linejoin="round" stroke-miterlimit="10" points="
		430,80 430,200 355,220 355,235 335,235 335,220 260,200 260,80 275,65 415,65 	"/>
	<g>
		
			<polygon fill-rule="evenodd" clip-rule="evenodd" fill="#FFFFFF" stroke="#000000" stroke-width="0.5" stroke-linecap="round" stroke-linejoin="round" stroke-miterlimit="10" points="
			565,135 585,135 585,175 575,190 565,175 		"/>
		
			<polygon fill-rule="evenodd" clip-rule="evenodd" fill="none" stroke="#000000" stroke-linecap="round" stroke-linejoin="round" stroke-miterlimit="10" points="
			565,135 585,135 585,175 575,190 565,175 		"/>
	</g>
	<g>
		
			<polygon fill-rule="evenodd" clip-rule="evenodd" fill="#FFFFFF" stroke="#000000" stroke-width="0.5" stroke-linecap="round" stroke-linejoin="round" stroke-miterlimit="10" points="
			475,135 485,135 485,155 480,165 475,155 		"/>
		
			<polygon fill-rule="evenodd" clip-rule="evenodd" fill="none" stroke="#000000" stroke-linecap="round" stroke-linejoin="round" stroke-miterlimit="10" points="
			475,135 485,135 485,155 480,165 475,155 		"/>
		
			<line fill-rule="evenodd" clip-rule="evenodd" fill="none" stroke="#000000" stroke-width="0.5" stroke-linecap="round" stroke-linejoin="round" stroke-miterlimit="10" x1="475" y1="140" x2="480" y2="140"/>
		
			<line fill-rule="evenodd" clip-rule="evenodd" fill="none" stroke="#000000" stroke-width="0.5" stroke-linecap="round" stroke-linejoin="round" stroke-miterlimit="10" x1="485" y1="145" x2="480" y2="145"/>
		
			<line fill-rule="evenodd" clip-rule="evenodd" fill="none" stroke="#000000" stroke-width="0.5" stroke-linecap="round" stroke-linejoin="round" stroke-miterlimit="10" x1="475" y1="150" x2="480" y2="150"/>
		
			<line fill-rule="evenodd" clip-rule="evenodd" fill="none" stroke="#000000" stroke-width="0.5" stroke-linecap="round" stroke-linejoin="round" stroke-miterlimit="10" x1="475" y1="155" x2="480" y2="155"/>
	</g>
	<g>
		
			<polygon fill-rule="evenodd" clip-rule="evenodd" fill="#FFFFFF" stroke="#000000" stroke-width="0.5" stroke-linecap="round" stroke-linejoin="round" stroke-miterlimit="10" points="
			495,45 505,45 505,65 500,75 495,65 		"/>
		
			<polygon fill-rule="evenodd" clip-rule="evenodd" fill="none" stroke="#000000" stroke-linecap="round" stroke-linejoin="round" stroke-miterlimit="10" points="
			495,45 505,45 505,65 500,75 495,65 		"/>
		
			<line fill-rule="evenodd" clip-rule="evenodd" fill="none" stroke="#000000" stroke-width="0.5" stroke-linecap="round" stroke-linejoin="round" stroke-miterlimit="10" x1="495" y1="50" x2="500" y2="50"/>
		
			<line fill-rule="evenodd" clip-rule="evenodd" fill="none" stroke="#000000" stroke-width="0.5" stroke-linecap="round" stroke-linejoin="round" stroke-miterlimit="10" x1="505" y1="55" x2="500" y2="55"/>
		
			<line fill-rule="evenodd" clip-rule="evenodd" fill="none" stroke="#000000" stroke-width="0.5" stroke-linecap="round" stroke-linejoin="round" stroke-miterlimit="10" x1="495" y1="60" x2="500" y2="60"/>
		
			<line fill-rule="evenodd" clip-rule="evenodd" fill="none" stroke="#000000" stroke-width="0.5" stroke-linecap="round" stroke-linejoin="round" stroke-miterlimit="10" x1="495" y1="65" x2="500" y2="65"/>
	</g>
</g>
<g id="EQUIPMENTS" display="none">
	
		<rect x="235" y="125" display="inline" fill-rule="evenodd" clip-rule="evenodd" fill="#FFFFFF" stroke="#000000" stroke-linecap="round" stroke-linejoin="round" stroke-miterlimit="10" width="25" height="45"/>
	
		<rect x="430" y="125" display="inline" fill-rule="evenodd" clip-rule="evenodd" fill="#FFFFFF" stroke="#000000" stroke-linecap="round" stroke-linejoin="round" stroke-miterlimit="10" width="25" height="45"/>
	
		<rect x="382.523" y="199.438" transform="matrix(-0.2675 -0.9636 0.9636 -0.2675 286.8218 661.9286)" display="inline" fill-rule="evenodd" clip-rule="evenodd" fill="#FFFFFF" stroke="#000000" stroke-linecap="round" stroke-linejoin="round" stroke-miterlimit="10" width="25.001" height="45"/>
	
		<rect x="282.5" y="199.56" transform="matrix(0.261 -0.9653 0.9653 0.261 3.6396 448.8735)" display="inline" fill-rule="evenodd" clip-rule="evenodd" fill="#FFFFFF" stroke="#000000" stroke-linecap="round" stroke-linejoin="round" stroke-miterlimit="10" width="25" height="45"/>
	
		<circle display="inline" fill-rule="evenodd" clip-rule="evenodd" fill="#FFFFFF" stroke="#000000" stroke-miterlimit="10" cx="620" cy="70" r="25"/>
	<g display="inline">
		
			<circle fill-rule="evenodd" clip-rule="evenodd" fill="#FFFFFF" stroke="#000000" stroke-miterlimit="10" cx="345" cy="330" r="25"/>
		<text transform="matrix(1 0 0 1 338.8369 336.5469)" font-family="'ProximaNova-Regular'" font-size="21">P</text>
	</g>
	<g display="inline">
		<g>
			
				<circle fill-rule="evenodd" clip-rule="evenodd" fill="#FFFFFF" stroke="#000000" stroke-miterlimit="10" cx="375" cy="650" r="25"/>
			<text transform="matrix(1 0 0 1 368.8369 656.5469)" font-family="'ProximaNova-Regular'" font-size="21">P</text>
		</g>
	</g>
	<g display="inline">
		<g>
			
				<circle fill-rule="evenodd" clip-rule="evenodd" fill="#FFFFFF" stroke="#000000" stroke-miterlimit="10" cx="425" cy="525" r="20"/>
			<text transform="matrix(1 0 0 1 417.5244 531.5469)" font-family="'ProximaNova-Regular'" font-size="21">H</text>
		</g>
	</g>
	<g display="inline">
		<g>
			
				<circle fill-rule="evenodd" clip-rule="evenodd" fill="#FFFFFF" stroke="#000000" stroke-miterlimit="10" cx="325" cy="525" r="20"/>
			<text transform="matrix(1 0 0 1 317.5244 531.5469)" font-family="'ProximaNova-Regular'" font-size="21">H</text>
		</g>
	</g>
	<g display="inline">
		<g>
			
				<circle fill-rule="evenodd" clip-rule="evenodd" fill="#FFFFFF" stroke="#000000" stroke-miterlimit="10" cx="92.5" cy="530" r="20"/>
			<text transform="matrix(1 0 0 1 85.0244 536.5469)" font-family="'ProximaNova-Regular'" font-size="21">H</text>
		</g>
	</g>
	<text transform="matrix(1 0 0 1 613.8359 76.5469)" display="inline" font-family="'ProximaNova-Regular'" font-size="21">P</text>
	<text transform="matrix(1 0 0 1 241.1914 153.1113)" display="inline" font-family="'ProximaNova-Regular'" font-size="18">U</text>
	<text transform="matrix(1 0 0 1 436.1914 153.1113)" display="inline" font-family="'ProximaNova-Regular'" font-size="18">U</text>
	<text transform="matrix(1 0 0 1 288.6914 227.6709)" display="inline" font-family="'ProximaNova-Regular'" font-size="18">U</text>
	<text transform="matrix(1 0 0 1 388.7148 227.5488)" display="inline" font-family="'ProximaNova-Regular'" font-size="18">U</text>
	<g display="inline">
		
			<circle fill-rule="evenodd" clip-rule="evenodd" fill="#FFFFFF" stroke="#000000" stroke-width="2" stroke-linecap="round" stroke-linejoin="round" stroke-miterlimit="10" cx="344.999" cy="140" r="65"/>
		
			<circle fill-rule="evenodd" clip-rule="evenodd" fill="#FFFFFF" stroke="#000000" stroke-width="0.5" stroke-linecap="round" stroke-linejoin="round" stroke-miterlimit="10" cx="344.999" cy="140" r="40"/>
		
			<circle fill-rule="evenodd" clip-rule="evenodd" fill="#FFFFFF" stroke="#000000" stroke-width="0.5" stroke-linecap="round" stroke-linejoin="round" stroke-miterlimit="10" cx="344.999" cy="88" r="3"/>
		
			<circle fill-rule="evenodd" clip-rule="evenodd" fill="#FFFFFF" stroke="#000000" stroke-width="0.5" stroke-linecap="round" stroke-linejoin="round" stroke-miterlimit="10" cx="344.999" cy="192" r="3"/>
	</g>
	
		<circle display="inline" fill-rule="evenodd" clip-rule="evenodd" fill="#FFFFFF" stroke="#000000" stroke-miterlimit="10" cx="-20" cy="30" r="25"/>
</g>
<g id="VALVES" display="none">
	<g display="inline">
		
			<polygon fill-rule="evenodd" clip-rule="evenodd" stroke="#000000" stroke-width="0.5" stroke-linecap="round" stroke-linejoin="round" stroke-miterlimit="10" points="
			520,165 540,175 540,165 520,175 		"/>
		
			<line fill-rule="evenodd" clip-rule="evenodd" fill="none" stroke="#000000" stroke-width="0.5" stroke-linecap="round" stroke-linejoin="round" stroke-miterlimit="10" x1="530" y1="170" x2="530" y2="165"/>
		
			<circle fill-rule="evenodd" clip-rule="evenodd" fill="#FFFFFF" stroke="#000000" stroke-width="0.5" stroke-linecap="round" stroke-linejoin="round" stroke-miterlimit="10" cx="530" cy="160" r="5"/>
		<text transform="matrix(1 0 0 1 527.6523 162.4941)" font-family="'ProximaNova-Regular'" font-size="8">P</text>
	</g>
	<g display="inline">
		
			<polygon fill-rule="evenodd" clip-rule="evenodd" stroke="#000000" stroke-width="0.5" stroke-linecap="round" stroke-linejoin="round" stroke-miterlimit="10" points="
			520,110 540,120 540,110 520,120 		"/>
		
			<line fill-rule="evenodd" clip-rule="evenodd" fill="none" stroke="#000000" stroke-width="0.5" stroke-linecap="round" stroke-linejoin="round" stroke-miterlimit="10" x1="530" y1="115" x2="530" y2="110"/>
		
			<circle fill-rule="evenodd" clip-rule="evenodd" fill="#FFFFFF" stroke="#000000" stroke-width="0.5" stroke-linecap="round" stroke-linejoin="round" stroke-miterlimit="10" cx="530" cy="105" r="5"/>
		<text transform="matrix(1 0 0 1 527.3672 107.4941)" font-family="'ProximaNova-Regular'" font-size="8">A</text>
	</g>
	<g display="inline">
		
			<polygon fill-rule="evenodd" clip-rule="evenodd" stroke="#000000" stroke-width="0.5" stroke-linecap="round" stroke-linejoin="round" stroke-miterlimit="10" points="
			455,90 475,100 475,90 455,100 		"/>
		
			<line fill-rule="evenodd" clip-rule="evenodd" fill="none" stroke="#000000" stroke-width="0.5" stroke-linecap="round" stroke-linejoin="round" stroke-miterlimit="10" x1="465" y1="95" x2="465" y2="90"/>
		
			<circle fill-rule="evenodd" clip-rule="evenodd" fill="#FFFFFF" stroke="#000000" stroke-width="0.5" stroke-linecap="round" stroke-linejoin="round" stroke-miterlimit="10" cx="465" cy="85" r="5"/>
		<text transform="matrix(1 0 0 1 462.3672 87.4941)" font-family="'ProximaNova-Regular'" font-size="8">A</text>
	</g>
	<g display="inline">
		
			<polygon fill-rule="evenodd" clip-rule="evenodd" stroke="#000000" stroke-width="0.5" stroke-linecap="round" stroke-linejoin="round" stroke-miterlimit="10" points="
			625,145 615,165 625,165 615,145 		"/>
		
			<line fill-rule="evenodd" clip-rule="evenodd" fill="none" stroke="#000000" stroke-width="0.5" stroke-linecap="round" stroke-linejoin="round" stroke-miterlimit="10" x1="620" y1="155" x2="625" y2="155"/>
		
			<circle fill-rule="evenodd" clip-rule="evenodd" fill="#FFFFFF" stroke="#000000" stroke-width="0.5" stroke-linecap="round" stroke-linejoin="round" stroke-miterlimit="10" cx="630" cy="155" r="5"/>
	</g>
	
		<path display="inline" fill-rule="evenodd" clip-rule="evenodd" fill="none" stroke="#000000" stroke-linecap="round" stroke-linejoin="round" stroke-miterlimit="10" d="
		M430,190"/>
	<g display="inline">
		
			<polygon fill-rule="evenodd" clip-rule="evenodd" stroke="#000000" stroke-width="0.5" stroke-linecap="round" stroke-linejoin="round" stroke-miterlimit="10" points="
			350,265 340,285 350,285 340,265 		"/>
		
			<line fill-rule="evenodd" clip-rule="evenodd" fill="none" stroke="#000000" stroke-width="0.5" stroke-linecap="round" stroke-linejoin="round" stroke-miterlimit="10" x1="345" y1="275" x2="350" y2="275"/>
		
			<circle fill-rule="evenodd" clip-rule="evenodd" fill="#FFFFFF" stroke="#000000" stroke-width="0.5" stroke-linecap="round" stroke-linejoin="round" stroke-miterlimit="10" cx="355" cy="275" r="5"/>
		<text transform="matrix(0 1 -1 0 352.5059 272.3682)" font-family="'ProximaNova-Regular'" font-size="8">A</text>
	</g>
	<g display="inline">
		
			<polygon fill-rule="evenodd" clip-rule="evenodd" stroke="#000000" stroke-width="0.5" stroke-linecap="round" stroke-linejoin="round" stroke-miterlimit="10" points="
			350,410 340,430 350,430 340,410 		"/>
		
			<line fill-rule="evenodd" clip-rule="evenodd" fill="none" stroke="#000000" stroke-width="0.5" stroke-linecap="round" stroke-linejoin="round" stroke-miterlimit="10" x1="345" y1="420" x2="350" y2="420"/>
		
			<circle fill-rule="evenodd" clip-rule="evenodd" fill="#FFFFFF" stroke="#000000" stroke-width="0.5" stroke-linecap="round" stroke-linejoin="round" stroke-miterlimit="10" cx="355" cy="420" r="5"/>
		<text transform="matrix(0 1 -1 0 352.5059 417.3682)" font-family="'ProximaNova-Regular'" font-size="8">A</text>
	</g>
	<g display="inline">
		
			<polygon fill-rule="evenodd" clip-rule="evenodd" stroke="#000000" stroke-width="0.5" stroke-linecap="round" stroke-linejoin="round" stroke-miterlimit="10" points="
			430,410 420,430 430,430 420,410 		"/>
		
			<line fill-rule="evenodd" clip-rule="evenodd" fill="none" stroke="#000000" stroke-width="0.5" stroke-linecap="round" stroke-linejoin="round" stroke-miterlimit="10" x1="425" y1="420" x2="430" y2="420"/>
		
			<circle fill-rule="evenodd" clip-rule="evenodd" fill="#FFFFFF" stroke="#000000" stroke-width="0.5" stroke-linecap="round" stroke-linejoin="round" stroke-miterlimit="10" cx="435" cy="420" r="5"/>
		<text transform="matrix(0 1 -1 0 432.5059 417.3682)" font-family="'ProximaNova-Regular'" font-size="8">A</text>
	</g>
	<g display="inline">
		
			<polygon fill-rule="evenodd" clip-rule="evenodd" stroke="#000000" stroke-width="0.5" stroke-linecap="round" stroke-linejoin="round" stroke-miterlimit="10" points="
			350,575 340,595 350,595 340,575 		"/>
		
			<line fill-rule="evenodd" clip-rule="evenodd" fill="none" stroke="#000000" stroke-width="0.5" stroke-linecap="round" stroke-linejoin="round" stroke-miterlimit="10" x1="345" y1="585" x2="350" y2="585"/>
		
			<circle fill-rule="evenodd" clip-rule="evenodd" fill="#FFFFFF" stroke="#000000" stroke-width="0.5" stroke-linecap="round" stroke-linejoin="round" stroke-miterlimit="10" cx="355" cy="585" r="5"/>
		<text transform="matrix(0 1 -1 0 352.5059 582.3682)" font-family="'ProximaNova-Regular'" font-size="8">A</text>
	</g>
	<g display="inline">
		
			<polygon fill-rule="evenodd" clip-rule="evenodd" stroke="#000000" stroke-width="0.5" stroke-linecap="round" stroke-linejoin="round" stroke-miterlimit="10" points="
			430,575 420,595 430,595 420,575 		"/>
		
			<line fill-rule="evenodd" clip-rule="evenodd" fill="none" stroke="#000000" stroke-width="0.5" stroke-linecap="round" stroke-linejoin="round" stroke-miterlimit="10" x1="425" y1="585" x2="430" y2="585"/>
		
			<circle fill-rule="evenodd" clip-rule="evenodd" fill="#FFFFFF" stroke="#000000" stroke-width="0.5" stroke-linecap="round" stroke-linejoin="round" stroke-miterlimit="10" cx="435" cy="585" r="5"/>
		<text transform="matrix(0 1 -1 0 432.5059 582.3682)" font-family="'ProximaNova-Regular'" font-size="8">A</text>
	</g>
	<g display="inline">
		
			<polygon fill-rule="evenodd" clip-rule="evenodd" stroke="#000000" stroke-width="0.5" stroke-linecap="round" stroke-linejoin="round" stroke-miterlimit="10" points="
			580,265 570,285 580,285 570,265 		"/>
		
			<line fill-rule="evenodd" clip-rule="evenodd" fill="none" stroke="#000000" stroke-width="0.5" stroke-linecap="round" stroke-linejoin="round" stroke-miterlimit="10" x1="575" y1="275" x2="580" y2="275"/>
		
			<circle fill-rule="evenodd" clip-rule="evenodd" fill="#FFFFFF" stroke="#000000" stroke-width="0.5" stroke-linecap="round" stroke-linejoin="round" stroke-miterlimit="10" cx="585" cy="275" r="5"/>
		<text transform="matrix(0 1 -1 0 582.5059 272.6523)" font-family="'ProximaNova-Regular'" font-size="8">P</text>
	</g>
	<g display="inline">
		
			<polygon fill-rule="evenodd" clip-rule="evenodd" stroke="#000000" stroke-width="0.5" stroke-linecap="round" stroke-linejoin="round" stroke-miterlimit="10" points="
			415,325 435,335 435,325 415,335 		"/>
		
			<line fill-rule="evenodd" clip-rule="evenodd" fill="none" stroke="#000000" stroke-width="0.5" stroke-linecap="round" stroke-linejoin="round" stroke-miterlimit="10" x1="425" y1="330" x2="425" y2="325"/>
		
			<circle fill-rule="evenodd" clip-rule="evenodd" fill="#FFFFFF" stroke="#000000" stroke-width="0.5" stroke-linecap="round" stroke-linejoin="round" stroke-miterlimit="10" cx="425" cy="320" r="5"/>
		<text transform="matrix(1 0 0 1 422.6563 322.4941)" font-family="'ProximaNova-Regular'" font-size="8">S</text>
	</g>
	<g display="inline">
		
			<polygon fill-rule="evenodd" clip-rule="evenodd" stroke="#000000" stroke-width="0.5" stroke-linecap="round" stroke-linejoin="round" stroke-miterlimit="10" points="
			485,265 475,285 485,285 475,265 		"/>
		
			<line fill-rule="evenodd" clip-rule="evenodd" fill="none" stroke="#000000" stroke-width="0.5" stroke-linecap="round" stroke-linejoin="round" stroke-miterlimit="10" x1="480" y1="275" x2="485" y2="275"/>
		
			<circle fill-rule="evenodd" clip-rule="evenodd" fill="#FFFFFF" stroke="#000000" stroke-width="0.5" stroke-linecap="round" stroke-linejoin="round" stroke-miterlimit="10" cx="490" cy="275" r="5"/>
		<text transform="matrix(0 1 -1 0 487.5059 272.6563)" font-family="'ProximaNova-Regular'" font-size="8">S</text>
	</g>
	<g display="inline">
		
			<polygon fill-rule="evenodd" clip-rule="evenodd" stroke="#000000" stroke-width="0.5" stroke-linecap="round" stroke-linejoin="round" stroke-miterlimit="10" points="
			520,235 540,245 540,235 520,245 		"/>
		
			<line fill-rule="evenodd" clip-rule="evenodd" fill="none" stroke="#000000" stroke-width="0.5" stroke-linecap="round" stroke-linejoin="round" stroke-miterlimit="10" x1="530" y1="240" x2="530" y2="235"/>
		
			<circle fill-rule="evenodd" clip-rule="evenodd" fill="#FFFFFF" stroke="#000000" stroke-width="0.5" stroke-linecap="round" stroke-linejoin="round" stroke-miterlimit="10" cx="530" cy="230" r="5"/>
		<text transform="matrix(1 0 0 1 527.6543 232.4951)" font-family="'ProximaNova-Regular'" font-size="8">S</text>
	</g>
	<g display="inline">
		
			<polygon fill-rule="evenodd" clip-rule="evenodd" stroke="#000000" stroke-width="0.5" stroke-linecap="round" stroke-linejoin="round" stroke-miterlimit="10" points="
			250,265 240,285 250,285 240,265 		"/>
		
			<line fill-rule="evenodd" clip-rule="evenodd" fill="none" stroke="#000000" stroke-width="0.5" stroke-linecap="round" stroke-linejoin="round" stroke-miterlimit="10" x1="245" y1="275" x2="250" y2="275"/>
		
			<circle fill-rule="evenodd" clip-rule="evenodd" fill="#FFFFFF" stroke="#000000" stroke-width="0.5" stroke-linecap="round" stroke-linejoin="round" stroke-miterlimit="10" cx="255" cy="275" r="5"/>
		<text transform="matrix(0 1 -1 0 252.5059 272.3682)" font-family="'ProximaNova-Regular'" font-size="8">A</text>
	</g>
	<g display="inline">
		
			<polygon fill-rule="evenodd" clip-rule="evenodd" stroke="#000000" stroke-width="0.5" stroke-linecap="round" stroke-linejoin="round" stroke-miterlimit="10" points="
			200,265 190,285 200,285 190,265 		"/>
		
			<line fill-rule="evenodd" clip-rule="evenodd" fill="none" stroke="#000000" stroke-width="0.5" stroke-linecap="round" stroke-linejoin="round" stroke-miterlimit="10" x1="195" y1="275" x2="200" y2="275"/>
		
			<circle fill-rule="evenodd" clip-rule="evenodd" fill="#FFFFFF" stroke="#000000" stroke-width="0.5" stroke-linecap="round" stroke-linejoin="round" stroke-miterlimit="10" cx="205" cy="275" r="5"/>
		<text transform="matrix(0 1 -1 0 202.5059 272.3682)" font-family="'ProximaNova-Regular'" font-size="8">A</text>
	</g>
	<g display="inline">
		
			<polygon fill-rule="evenodd" clip-rule="evenodd" stroke="#000000" stroke-width="0.5" stroke-linecap="round" stroke-linejoin="round" stroke-miterlimit="10" points="
			80,265 70,285 80,285 70,265 		"/>
		
			<line fill-rule="evenodd" clip-rule="evenodd" fill="none" stroke="#000000" stroke-width="0.5" stroke-linecap="round" stroke-linejoin="round" stroke-miterlimit="10" x1="75" y1="275" x2="80" y2="275"/>
		
			<circle fill-rule="evenodd" clip-rule="evenodd" fill="#FFFFFF" stroke="#000000" stroke-width="0.5" stroke-linecap="round" stroke-linejoin="round" stroke-miterlimit="10" cx="85" cy="275" r="5"/>
		<text transform="matrix(0 1 -1 0 82.5059 272.3682)" font-family="'ProximaNova-Regular'" font-size="8">A</text>
	</g>
	<g display="inline">
		
			<polygon fill-rule="evenodd" clip-rule="evenodd" stroke="#000000" stroke-width="0.5" stroke-linecap="round" stroke-linejoin="round" stroke-miterlimit="10" points="
			225,470 245,480 245,470 225,480 		"/>
		
			<line fill-rule="evenodd" clip-rule="evenodd" fill="none" stroke="#000000" stroke-width="0.5" stroke-linecap="round" stroke-linejoin="round" stroke-miterlimit="10" x1="235" y1="475" x2="235" y2="470"/>
		
			<circle fill-rule="evenodd" clip-rule="evenodd" fill="#FFFFFF" stroke="#000000" stroke-width="0.5" stroke-linecap="round" stroke-linejoin="round" stroke-miterlimit="10" cx="235" cy="465" r="5"/>
		<text transform="matrix(1 0 0 1 232.3672 467.4951)" font-family="'ProximaNova-Regular'" font-size="8">A</text>
	</g>
	<g display="inline">
		
			<polygon fill-rule="evenodd" clip-rule="evenodd" stroke="#000000" stroke-width="0.5" stroke-linecap="round" stroke-linejoin="round" stroke-miterlimit="10" points="
			135,645 155,655 155,645 135,655 		"/>
		
			<line fill-rule="evenodd" clip-rule="evenodd" fill="none" stroke="#000000" stroke-width="0.5" stroke-linecap="round" stroke-linejoin="round" stroke-miterlimit="10" x1="145" y1="650" x2="145" y2="645"/>
		
			<circle fill-rule="evenodd" clip-rule="evenodd" fill="#FFFFFF" stroke="#000000" stroke-width="0.5" stroke-linecap="round" stroke-linejoin="round" stroke-miterlimit="10" cx="145" cy="640" r="5"/>
		<text transform="matrix(1 0 0 1 142.3672 642.4951)" font-family="'ProximaNova-Regular'" font-size="8">A</text>
	</g>
	<g display="inline">
		
			<polygon fill-rule="evenodd" clip-rule="evenodd" stroke="#000000" stroke-width="0.5" stroke-linecap="round" stroke-linejoin="round" stroke-miterlimit="10" points="
			520,645 540,655 540,645 520,655 		"/>
		
			<line fill-rule="evenodd" clip-rule="evenodd" fill="none" stroke="#000000" stroke-width="0.5" stroke-linecap="round" stroke-linejoin="round" stroke-miterlimit="10" x1="530" y1="650" x2="530" y2="645"/>
		
			<circle fill-rule="evenodd" clip-rule="evenodd" fill="#FFFFFF" stroke="#000000" stroke-width="0.5" stroke-linecap="round" stroke-linejoin="round" stroke-miterlimit="10" cx="530" cy="640" r="5"/>
		<text transform="matrix(1 0 0 1 527.3672 642.4951)" font-family="'ProximaNova-Regular'" font-size="8">A</text>
	</g>
	<g display="inline">
		
			<polygon fill-rule="evenodd" clip-rule="evenodd" stroke="#000000" stroke-width="0.5" stroke-linecap="round" stroke-linejoin="round" stroke-miterlimit="10" points="
			165,100 185,110 185,100 165,110 		"/>
		
			<line fill-rule="evenodd" clip-rule="evenodd" fill="none" stroke="#000000" stroke-width="0.5" stroke-linecap="round" stroke-linejoin="round" stroke-miterlimit="10" x1="175" y1="105" x2="175" y2="100"/>
		
			<circle fill-rule="evenodd" clip-rule="evenodd" fill="#FFFFFF" stroke="#000000" stroke-width="0.5" stroke-linecap="round" stroke-linejoin="round" stroke-miterlimit="10" cx="175" cy="95" r="5"/>
		<text transform="matrix(1 0 0 1 172.3672 97.4951)" font-family="'ProximaNova-Regular'" font-size="8">A</text>
	</g>
</g>
<g id="TERMINALS_1_">
	
		<circle fill-rule="evenodd" clip-rule="evenodd" fill="#FFFFFF" stroke="#000000" stroke-width="0.5" stroke-miterlimit="10" cx="565" cy="170" r="2.5"/>
	<circle fill-rule="evenodd" clip-rule="evenodd" cx="480" cy="165" r="2.5"/>
	
		<circle fill-rule="evenodd" clip-rule="evenodd" fill="#FFFFFF" stroke="#000000" stroke-width="0.5" stroke-miterlimit="10" cx="430" cy="115" r="2.5"/>
	<circle fill-rule="evenodd" clip-rule="evenodd" cx="575" cy="135" r="2.5"/>
	<circle fill-rule="evenodd" clip-rule="evenodd" cx="500" cy="75" r="2.5"/>
	
		<circle fill-rule="evenodd" clip-rule="evenodd" fill="#FFFFFF" stroke="#000000" stroke-width="0.5" stroke-miterlimit="10" cx="430" cy="95" r="2.5"/>
	
		<circle fill-rule="evenodd" clip-rule="evenodd" fill="#FFFFFF" stroke="#000000" stroke-width="0.5" stroke-miterlimit="10" cx="575" cy="190" r="2.5"/>
	<circle fill-rule="evenodd" clip-rule="evenodd" cx="620" cy="95" r="2.5"/>
	
		<circle fill-rule="evenodd" clip-rule="evenodd" fill="#FFFFFF" stroke="#000000" stroke-width="0.5" stroke-miterlimit="10" cx="620" cy="45" r="2.5"/>
	
		<circle fill-rule="evenodd" clip-rule="evenodd" fill="#FFFFFF" stroke="#000000" stroke-width="0.5" stroke-miterlimit="10" cx="345" cy="355" r="2.5"/>
	<circle fill-rule="evenodd" clip-rule="evenodd" cx="345" cy="305" r="2.5"/>
	
		<circle fill-rule="evenodd" clip-rule="evenodd" fill="#FFFFFF" stroke="#000000" stroke-width="0.5" stroke-miterlimit="10" cx="620" cy="330" r="2.5"/>
	
		<circle fill-rule="evenodd" clip-rule="evenodd" fill="#FFFFFF" stroke="#000000" stroke-width="0.5" stroke-miterlimit="10" cx="620" cy="650" r="2.5"/>
	<circle fill-rule="evenodd" clip-rule="evenodd" cx="370" cy="330" r="2.5"/>
	<circle fill-rule="evenodd" clip-rule="evenodd" cx="620" cy="240" r="2.5"/>
	<circle fill-rule="evenodd" clip-rule="evenodd" cx="430" cy="190" r="2.5"/>
	
		<circle fill-rule="evenodd" clip-rule="evenodd" fill="#FFFFFF" stroke="#000000" stroke-width="0.5" stroke-miterlimit="10" cx="345" cy="235" r="2.5"/>
	
		<circle fill-rule="evenodd" clip-rule="evenodd" fill="#FFFFFF" stroke="#000000" stroke-width="0.5" stroke-miterlimit="10" cx="260" cy="190" r="2.5"/>
	<circle fill-rule="evenodd" clip-rule="evenodd" cx="260" cy="180" r="2.5"/>
	<circle fill-rule="evenodd" clip-rule="evenodd" cx="260" cy="105" r="2.5"/>
	<circle fill-rule="evenodd" clip-rule="evenodd" cx="425" cy="449" r="2.5"/>
	<circle fill-rule="evenodd" clip-rule="evenodd" cx="345" cy="449" r="2.5"/>
	<circle fill-rule="evenodd" clip-rule="evenodd" cx="290" cy="449" r="2.5"/>
	<circle fill-rule="evenodd" clip-rule="evenodd" cx="274" cy="475" r="2.5"/>
	<circle fill-rule="evenodd" clip-rule="evenodd" cx="400" cy="650" r="2.5"/>
	
		<circle fill-rule="evenodd" clip-rule="evenodd" fill="#FFFFFF" stroke="#000000" stroke-width="0.5" stroke-miterlimit="10" cx="350" cy="650" r="2.5"/>
	
		<circle fill-rule="evenodd" clip-rule="evenodd" fill="#FFFFFF" stroke="#000000" stroke-width="0.5" stroke-miterlimit="10" cx="345" cy="556" r="2.5"/>
	
		<circle fill-rule="evenodd" clip-rule="evenodd" fill="#FFFFFF" stroke="#000000" stroke-width="0.5" stroke-miterlimit="10" cx="425" cy="556" r="2.5"/>
	<circle fill-rule="evenodd" clip-rule="evenodd" cx="110" cy="576" r="2.5"/>
	
		<circle fill-rule="evenodd" clip-rule="evenodd" fill="#FFFFFF" stroke="#000000" stroke-width="0.5" stroke-miterlimit="10" cx="110" cy="449" r="2.5"/>
	<circle fill-rule="evenodd" clip-rule="evenodd" cx="107" cy="30" r="2.5"/>
	<circle fill-rule="evenodd" clip-rule="evenodd" cx="38" cy="30" r="2.5"/>
	<circle fill-rule="evenodd" clip-rule="evenodd" cx="75" cy="81" r="2.5"/>
	
		<circle fill-rule="evenodd" clip-rule="evenodd" fill="#FFFFFF" stroke="#000000" stroke-width="0.5" stroke-miterlimit="10" cx="75" cy="449" r="2.5"/>
	
		<circle fill-rule="evenodd" clip-rule="evenodd" fill="#FFFFFF" stroke="#000000" stroke-width="0.5" stroke-miterlimit="10" cx="5" cy="30" r="2.5"/>
	
		<circle fill-rule="evenodd" clip-rule="evenodd" fill="#FFFFFF" stroke="#000000" stroke-width="0.5" stroke-miterlimit="10" cx="585" cy="170" r="2.5"/>
</g>
<g id="NAME" display="none">
	<text transform="matrix(1 0 0 1 56.0566 39.6182)" display="inline"><tspan x="0" y="0" font-family="'ProximaNova-Regular'" font-size="10">WATER</tspan><tspan x="-11.611" y="12" font-family="'ProximaNova-Regular'" font-size="10">SEPARATOR</tspan></text>
	<text transform="matrix(1 0 0 1 70.0098 480)" display="inline"><tspan x="0" y="0" font-family="'ProximaNova-Regular'" font-size="10">DISTILLER</tspan><tspan x="9.807" y="12" font-family="'ProximaNova-Regular'" font-size="10">TANK</tspan></text>
	<text transform="matrix(1 0 0 1 302.6504 480)" display="inline"><tspan x="0" y="0" font-family="'ProximaNova-Regular'" font-size="10">STORAGE</tspan><tspan x="5.43" y="12" font-family="'ProximaNova-Regular'" font-size="10">TANK 2</tspan></text>
	<text transform="matrix(1 0 0 1 402.6504 480)" display="inline"><tspan x="0" y="0" font-family="'ProximaNova-Regular'" font-size="10">STORAGE</tspan><tspan x="6.676" y="12" font-family="'ProximaNova-Regular'" font-size="10">TANK 1</tspan></text>
	<text transform="matrix(1 0 0 1 323.1094 135)" display="inline"><tspan x="0" y="0" font-family="'ProximaNova-Regular'" font-size="10">PROCESS</tspan><tspan x="-1.42" y="12" font-family="'ProximaNova-Regular'" font-size="10">CHAMBER</tspan></text>
	<text transform="matrix(1 0 0 1 289.9395 330)" display="inline"><tspan x="0" y="0" font-family="'ProximaNova-Regular'" font-size="10">AIR</tspan><tspan x="-11.779" y="12" font-family="'ProximaNova-Regular'" font-size="10">PUMP</tspan></text>
	<text transform="matrix(1 0 0 1 -55.3496 75)" display="inline" font-family="'ProximaNova-Regular'" font-size="10">REFRIGERATOR</text>
	<path display="inline" fill-rule="evenodd" clip-rule="evenodd" fill="none" stroke="#000000" stroke-miterlimit="10" d="M35,30"/>
</g>
</svg>
