<?xml version="1.0" encoding="utf-8"?>
<!-- Generator: Adobe Illustrator 16.0.0, SVG Export Plug-In . SVG Version: 6.00 Build 0)  -->
<!DOCTYPE svg PUBLIC "-//W3C//DTD SVG 1.1//EN" "http://www.w3.org/Graphics/SVG/1.1/DTD/svg11.dtd">
<svg version="1.1" id="Layer_1" xmlns="http://www.w3.org/2000/svg" xmlns:xlink="http://www.w3.org/1999/xlink" x="0px" y="0px"
	 width="60px" height="60px" viewBox="0 0 60 60" enable-background="new 0 0 60 60" xml:space="preserve">
<circle fill-rule="evenodd" clip-rule="evenodd" fill="#FFFFFF" cx="30" cy="30" r="25"/>
<path d="M30,55.5C15.939,55.5,4.5,44.061,4.5,30S15.939,4.5,30,4.5S55.5,15.939,55.5,30S44.061,55.5,30,55.5z M30,5.5
	C16.491,5.5,5.5,16.491,5.5,30S16.491,54.5,30,54.5S54.5,43.509,54.5,30S43.509,5.5,30,5.5z"/>
<path d="M24.992,37.002V22.998h5.627c2.813,0,4.389,1.932,4.389,4.22s-1.596,4.22-4.389,4.22h-3.885v5.564H24.992z M33.201,27.218
	c0-1.575-1.133-2.667-2.792-2.667h-3.675v5.334h3.675C32.068,29.885,33.201,28.793,33.201,27.218z"/>
</svg>
