<?xml version="1.0" encoding="utf-8"?>
<!-- Generator: Adobe Illustrator 16.0.0, SVG Export Plug-In . SVG Version: 6.00 Build 0)  -->
<!DOCTYPE svg PUBLIC "-//W3C//DTD SVG 1.1//EN" "http://www.w3.org/Graphics/SVG/1.1/DTD/svg11.dtd">
<svg version="1.1" id="Layer_1" xmlns="http://www.w3.org/2000/svg" xmlns:xlink="http://www.w3.org/1999/xlink" x="0px" y="0px"
	 width="230px" height="120px" viewBox="0 0 230 120" enable-background="new 0 0 230 120" xml:space="preserve">
<g>
	<g>
		
			<rect x="5" y="2.5" fill-rule="evenodd" clip-rule="evenodd" fill="#FF2F63" stroke="#000000" stroke-width="2" stroke-linecap="round" stroke-linejoin="round" stroke-miterlimit="10" width="25" height="45"/>
	</g>
	<g>
		
			<rect x="200" y="2.5" fill-rule="evenodd" clip-rule="evenodd" fill="#FF2F63" stroke="#000000" stroke-width="2" stroke-linecap="round" stroke-linejoin="round" stroke-miterlimit="10" width="25" height="45"/>
	</g>
	<g>
		
			<rect x="152.523" y="76.938" transform="matrix(-0.2675 -0.9636 0.9636 -0.2675 113.3447 285.0442)" fill-rule="evenodd" clip-rule="evenodd" fill="#FF2F63" stroke="#000000" stroke-width="2" stroke-linecap="round" stroke-linejoin="round" stroke-miterlimit="10" width="25.001" height="45"/>
	</g>
	<g>
		
			<rect x="52.5" y="77.06" transform="matrix(0.261 -0.9653 0.9653 0.261 -48.0742 136.3202)" fill-rule="evenodd" clip-rule="evenodd" fill="#FF2F63" stroke="#000000" stroke-width="2" stroke-linecap="round" stroke-linejoin="round" stroke-miterlimit="10" width="25" height="45"/>
	</g>
	<g>
		<path fill="#FFFFFF" d="M12.596,25.948v-7.347h1.513v7.311c0,2.196,1.17,3.583,3.385,3.583s3.403-1.387,3.403-3.583v-7.311h1.513
			v7.328c0,2.989-1.657,4.897-4.916,4.897C14.252,30.827,12.596,28.9,12.596,25.948z"/>
	</g>
	<g>
		<path fill="#FFFFFF" d="M207.596,25.948v-7.347h1.513v7.311c0,2.196,1.17,3.583,3.385,3.583s3.403-1.387,3.403-3.583v-7.311h1.513
			v7.328c0,2.989-1.657,4.897-4.916,4.897C209.252,30.827,207.596,28.9,207.596,25.948z"/>
	</g>
	<g>
		<path fill="#FFFFFF" d="M60.096,100.508v-7.347h1.513v7.311c0,2.196,1.17,3.583,3.385,3.583s3.403-1.387,3.403-3.583v-7.311h1.513
			v7.328c0,2.989-1.657,4.897-4.916,4.897C61.752,105.387,60.096,103.46,60.096,100.508z"/>
	</g>
	<g>
		<path fill="#FFFFFF" d="M160.119,100.386v-7.347h1.513v7.311c0,2.196,1.17,3.583,3.385,3.583s3.403-1.387,3.403-3.583v-7.311
			h1.513v7.328c0,2.989-1.657,4.897-4.916,4.897C161.775,105.265,160.119,103.338,160.119,100.386z"/>
	</g>
</g>
</svg>
