<?xml version="1.0" encoding="utf-8"?>
<!-- Generator: Adobe Illustrator 23.0.0, SVG Export Plug-In . SVG Version: 6.00 Build 0)  -->
<svg version="1.1" id="Layer_1" xmlns="http://www.w3.org/2000/svg" xmlns:xlink="http://www.w3.org/1999/xlink" x="0px" y="0px"
	 viewBox="0 0 703.1 823.7" style="enable-background:new 0 0 703.1 823.7;" xml:space="preserve">
<style type="text/css">
	.st0{fill:none;stroke:#000000;stroke-miterlimit:10;}
	.st1{fill:none;stroke:#000000;stroke-linecap:round;stroke-linejoin:round;stroke-miterlimit:10;stroke-dasharray:3,2;}
	.st2{fill:none;stroke:#000000;stroke-linecap:round;stroke-linejoin:round;}
	.st3{fill:none;stroke:#000000;stroke-linecap:round;stroke-linejoin:round;stroke-dasharray:3,2;}
	.st4{fill:none;stroke:#000000;stroke-linecap:round;stroke-linejoin:round;stroke-miterlimit:10;}
	.st5{fill-rule:evenodd;clip-rule:evenodd;fill:#FFFFFF;}
	.st6{fill:none;stroke:#000000;stroke-width:0.5;stroke-linecap:round;stroke-linejoin:round;stroke-miterlimit:1.5;}
	.st7{fill:none;stroke:#000000;stroke-width:0.5;stroke-linecap:round;stroke-linejoin:round;stroke-miterlimit:10;}
	.st8{fill:none;stroke:#000000;stroke-width:2;stroke-linecap:round;stroke-linejoin:round;stroke-miterlimit:10;}
	.st9{fill:none;stroke:#000000;stroke-width:0.5;stroke-miterlimit:10;}
	.st10{fill-rule:evenodd;clip-rule:evenodd;}
	.st11{fill:none;}
	.st12{fill:#FFFFFF;}
	.st13{clip-path:url(#SVGID_2_);}
	.st14{clip-path:url(#SVGID_4_);fill:none;stroke:#000000;stroke-linecap:round;stroke-linejoin:round;stroke-miterlimit:10;}
	.st15{fill:none;stroke:#3FA9F5;stroke-miterlimit:10;}
	.st16{fill:none;stroke:#3FA9F5;stroke-linecap:round;stroke-linejoin:round;stroke-miterlimit:10;}
	.st17{clip-path:url(#SVGID_6_);}
	.st18{clip-path:url(#SVGID_8_);fill:none;stroke:#000000;stroke-linecap:round;stroke-linejoin:round;stroke-miterlimit:10;}
</style>
<polyline class="st0" points="314,181.3 273.2,180.4 246.4,180.4 246.4,759.5 341.6,759.5 "/>
<line class="st1" x1="393.7" y1="396.9" x2="645" y2="396.9"/>
<polyline class="st0" points="377.7,330.1 393.7,330.1 393.7,714.1 466.8,714.1 "/>
<line class="st2" x1="603.9" y1="169.9" x2="602.5" y2="169.9"/>
<line class="st3" x1="600.7" y1="169.9" x2="519.3" y2="169.9"/>
<polyline class="st2" points="518.4,169.9 517,169.9 517,168.4 "/>
<line class="st2" x1="517" y1="166.4" x2="517" y2="164.9"/>
<line class="st2" x1="471.4" y1="114.9" x2="472.7" y2="114.9"/>
<line class="st3" x1="474.6" y1="114.9" x2="601.6" y2="114.9"/>
<polyline class="st2" points="602.5,114.9 603.9,114.9 603.9,116.4 "/>
<line class="st3" x1="603.9" y1="118.4" x2="603.9" y2="167.4"/>
<line class="st2" x1="603.9" y1="168.4" x2="603.9" y2="169.9"/>
<line class="st2" x1="471.4" y1="94.9" x2="472.7" y2="94.9"/>
<line class="st3" x1="474.6" y1="94.9" x2="533" y2="94.9"/>
<polyline class="st2" points="534,94.9 535.3,94.9 535.3,93.4 "/>
<line class="st3" x1="535.3" y1="91.4" x2="535.3" y2="77.5"/>
<line class="st2" x1="535.3" y1="76.5" x2="535.3" y2="75"/>
<line class="st0" x1="603.6" y1="391.2" x2="603.6" y2="192.3"/>
<polyline class="st0" points="603.9,402.6 603.9,459.2 393.7,459.2 "/>
<line class="st2" x1="603.9" y1="169.9" x2="605.2" y2="169.9"/>
<line class="st3" x1="607.1" y1="169.9" x2="642.7" y2="169.9"/>
<polyline class="st2" points="643.6,169.9 645,169.9 645,168.4 "/>
<line class="st3" x1="645" y1="166.4" x2="645" y2="32.5"/>
<line class="st2" x1="645" y1="31.5" x2="645" y2="30"/>
<path class="st4" d="M603.9,391.2c2.5,0,4.6,2.5,4.6,5.7c0,3.1-2,5.7-4.6,5.7"/>
<polyline class="st0" points="316,189.8 302.3,189.8 302.3,447 343.4,447 343.4,532.8 "/>
<line class="st2" x1="147" y1="480.6" x2="147" y2="479.1"/>
<line class="st3" x1="147" y1="477.1" x2="147" y2="63.5"/>
<polyline class="st2" points="147,31.5 147,30 148.3,30 "/>
<line class="st3" x1="150.2" y1="30" x2="642.7" y2="30"/>
<line class="st2" x1="643.6" y1="30" x2="645" y2="30"/>
<line class="st0" x1="115" y1="30" x2="83" y2="30"/>
<rect x="421.1" y="532.8" class="st5" width="91.4" height="5.7"/>
<rect x="421.1" y="532.8" class="st6" width="91.4" height="5.7"/>
<rect x="329.7" y="532.8" class="st5" width="91.4" height="5.7"/>
<rect x="329.7" y="532.8" class="st6" width="91.4" height="5.7"/>
<rect x="325.2" y="538.5" class="st5" width="191.9" height="5.7"/>
<rect x="325.2" y="538.5" class="st6" width="191.9" height="5.7"/>
<rect x="329.7" y="544.2" class="st5" width="182.8" height="107.6"/>
<rect x="329.7" y="544.2" class="st6" width="182.8" height="107.6"/>
<line class="st6" x1="421.1" y1="651.8" x2="421.1" y2="566.8"/>
<path d="M512.5,532.8v5.7h4.6v5.7h-4.6v107.6H329.7V544.2h-4.6v-5.7h4.6v-5.7h91.4H512.5 M512.5,530.6h-91.4h-91.4
	c-1,0-1.8,1-1.8,2.3v3.4h-2.7c-1,0-1.8,1-1.8,2.3v5.7c0,1.2,0.8,2.3,1.8,2.3h2.7V652c0,1.2,0.8,2.3,1.8,2.3h182.8c1,0,1.8-1,1.8-2.3
	V546.4h2.7c1,0,1.8-1,1.8-2.3v-5.7c0-1.2-0.8-2.3-1.8-2.3h-2.7v-3.4C514.3,531.6,513.5,530.6,512.5,530.6z"/>
<rect x="110" y="500.6" class="st5" width="13.7" height="25"/>
<rect x="110" y="500.6" class="st6" width="13.7" height="25"/>
<rect x="119.6" y="480.6" class="st5" width="86.8" height="5"/>
<rect x="119.6" y="480.6" class="st6" width="86.8" height="5"/>
<rect x="123.5" y="485.6" class="st5" width="78.9" height="114.9"/>
<rect x="123.5" y="485.6" class="st6" width="78.9" height="114.9"/>
<rect x="123.5" y="600.4" class="st5" width="78.9" height="5"/>
<rect x="123.5" y="600.4" class="st6" width="78.9" height="5"/>
<rect x="105.8" y="495.6" class="st5" width="4.6" height="35"/>
<rect x="105.8" y="495.6" class="st6" width="4.6" height="35"/>
<path d="M206.4,480.6v5h-3.9v114.9v5h-78.9v-5v-74.9h-13.1v5h-4.6v-35h4.6v5h13.1v-15h-3.9v-5H206.4 M206.4,478.6h-86.8
	c-1,0-1.8,0.9-1.8,2v5c0,1.1,0.8,2,1.8,2h2.1v11h-9.4v-3c0-1.1-0.8-2-1.8-2h-4.6c-1,0-1.8,0.9-1.8,2v35c0,1.1,0.8,2,1.8,2h4.6
	c1,0,1.8-0.9,1.8-2v-3h9.4v72.9v5c0,1.1,0.8,2,1.8,2h78.9c1,0,1.8-0.9,1.8-2v-5V487.6h2.1c1,0,1.8-0.9,1.8-2v-5
	C208.2,479.5,207.4,478.6,206.4,478.6z"/>
<rect x="110.4" y="5" class="st5" width="68.5" height="5"/>
<rect x="110.4" y="5" class="st6" width="68.5" height="5"/>
<rect x="114.4" y="10" class="st5" width="60.6" height="64.9"/>
<rect x="114.4" y="10" class="st6" width="60.6" height="64.9"/>
<rect x="114.4" y="75" class="st5" width="60.6" height="5"/>
<rect x="114.4" y="75" class="st6" width="60.6" height="5"/>
<path d="M179,5v5h-4v65v5h-60.6v-5V10h-3.9V5H179 M179,3h-68.5c-1,0-1.8,0.9-1.8,2v5c0,1.1,0.8,2,1.8,2h2.1v63v5c0,1.1,0.8,2,1.8,2
	H175c1,0,1.8-0.9,1.8-2v-5V12h2.1c1,0,1.8-0.9,1.8-2V5C180.8,3.9,180,3,179,3z"/>
<polygon class="st5" points="471.4,80 471.4,199.8 402.8,219.8 402.8,234.8 384.6,234.8 384.6,219.8 316,199.8 316,80 329.7,65 
	457.7,65 "/>
<polygon class="st7" points="471.4,80 471.4,199.8 402.8,219.8 402.8,234.8 384.6,234.8 384.6,219.8 316,199.8 316,80 329.7,65 
	457.7,65 "/>
<ellipse class="st7" cx="393.7" cy="139.9" rx="54.8" ry="59.9"/>
<polygon class="st8" points="471.4,80 471.4,199.8 402.8,219.8 402.8,234.8 384.6,234.8 384.6,219.8 316,199.8 316,80 329.7,65 
	457.7,65 "/>
<polygon class="st5" points="594.7,134.9 613,134.9 613,174.9 603.9,189.8 594.7,174.9 "/>
<polygon class="st7" points="594.7,134.9 613,134.9 613,174.9 603.9,189.8 594.7,174.9 "/>
<polygon class="st4" points="594.7,134.9 613,134.9 613,174.9 603.9,189.8 594.7,174.9 "/>
<polygon class="st5" points="512.5,134.9 521.6,134.9 521.6,154.9 517,164.9 512.5,154.9 "/>
<polygon class="st7" points="512.5,134.9 521.6,134.9 521.6,154.9 517,164.9 512.5,154.9 "/>
<polygon class="st4" points="512.5,134.9 521.6,134.9 521.6,154.9 517,164.9 512.5,154.9 "/>
<line class="st7" x1="512.5" y1="139.9" x2="517" y2="139.9"/>
<line class="st7" x1="521.6" y1="144.9" x2="517" y2="144.9"/>
<line class="st7" x1="512.5" y1="149.9" x2="517" y2="149.9"/>
<line class="st7" x1="512.5" y1="154.9" x2="517" y2="154.9"/>
<polygon class="st5" points="530.8,45 539.9,45 539.9,65 535.3,75 530.8,65 "/>
<polygon class="st7" points="530.8,45 539.9,45 539.9,65 535.3,75 530.8,65 "/>
<polygon class="st4" points="530.8,45 539.9,45 539.9,65 535.3,75 530.8,65 "/>
<line class="st7" x1="530.8" y1="50" x2="535.3" y2="50"/>
<line class="st7" x1="539.9" y1="55" x2="535.3" y2="55"/>
<line class="st7" x1="530.8" y1="60" x2="535.3" y2="60"/>
<line class="st7" x1="530.8" y1="65" x2="535.3" y2="65"/>
<path class="st5" d="M594.7,167.4c1.3,0,2.3,1.1,2.3,2.5s-1,2.5-2.3,2.5s-2.3-1.1-2.3-2.5S593.5,167.4,594.7,167.4z"/>
<path class="st9" d="M594.7,167.4c1.3,0,2.3,1.1,2.3,2.5s-1,2.5-2.3,2.5s-2.3-1.1-2.3-2.5S593.5,167.4,594.7,167.4z"/>
<path class="st10" d="M517,162.4c1.3,0,2.3,1.1,2.3,2.5s-1,2.5-2.3,2.5s-2.3-1.1-2.3-2.5S515.8,162.4,517,162.4z"/>
<ellipse class="st5" cx="471.4" cy="114.9" rx="2.3" ry="2.5"/>
<ellipse class="st9" cx="471.4" cy="114.9" rx="2.3" ry="2.5"/>
<path class="st10" d="M603.9,132.4c1.3,0,2.3,1.1,2.3,2.5s-1,2.5-2.3,2.5s-2.3-1.1-2.3-2.5S602.6,132.4,603.9,132.4z"/>
<path class="st10" d="M535.3,72.5c1.3,0,2.3,1.1,2.3,2.5s-1,2.5-2.3,2.5S533,76.4,533,75S534.1,72.5,535.3,72.5z"/>
<ellipse class="st5" cx="471.4" cy="94.9" rx="2.3" ry="2.5"/>
<ellipse class="st9" cx="471.4" cy="94.9" rx="2.3" ry="2.5"/>
<path class="st5" d="M603.9,187.3c1.3,0,2.3,1.1,2.3,2.5s-1,2.5-2.3,2.5s-2.3-1.1-2.3-2.5S602.6,187.3,603.9,187.3z"/>
<path class="st9" d="M603.9,187.3c1.3,0,2.3,1.1,2.3,2.5s-1,2.5-2.3,2.5s-2.3-1.1-2.3-2.5S602.6,187.3,603.9,187.3z"/>
<path class="st10" d="M645,92.4c1.3,0,2.3,1.1,2.3,2.5s-1,2.5-2.3,2.5s-2.3-1.1-2.3-2.5S643.7,92.4,645,92.4z"/>
<path class="st5" d="M645,42.5c1.3,0,2.3,1.1,2.3,2.5s-1,2.5-2.3,2.5s-2.3-1.1-2.3-2.5S643.7,42.5,645,42.5z"/>
<path class="st9" d="M645,42.5c1.3,0,2.3,1.1,2.3,2.5s-1,2.5-2.3,2.5s-2.3-1.1-2.3-2.5S643.7,42.5,645,42.5z"/>
<path class="st5" d="M393.7,422.4c1.3,0,2.3,1.3,2.3,2.8s-1,2.8-2.3,2.8s-2.3-1.3-2.3-2.8S392.4,422.4,393.7,422.4z"/>
<path class="st9" d="M393.7,422.4c1.3,0,2.3,1.3,2.3,2.8s-1,2.8-2.3,2.8s-2.3-1.3-2.3-2.8S392.4,422.4,393.7,422.4z"/>
<path class="st10" d="M393.7,365.7c1.3,0,2.3,1.3,2.3,2.8s-1,2.8-2.3,2.8s-2.3-1.3-2.3-2.8S392.4,365.7,393.7,365.7z"/>
<path class="st5" d="M645,394.1c1.3,0,2.3,1.3,2.3,2.8c0,1.6-1,2.8-2.3,2.8s-2.3-1.3-2.3-2.8C642.7,395.3,643.7,394.1,645,394.1z"/>
<path class="st9" d="M645,394.1c1.3,0,2.3,1.3,2.3,2.8c0,1.6-1,2.8-2.3,2.8s-2.3-1.3-2.3-2.8C642.7,395.3,643.7,394.1,645,394.1z"/>
<path class="st10" d="M416.5,394.1c1.3,0,2.3,1.3,2.3,2.8c0,1.6-1,2.8-2.3,2.8s-2.3-1.3-2.3-2.8
	C414.2,395.3,415.3,394.1,416.5,394.1z"/>
<path class="st5" d="M393.7,232.3c1.3,0,2.3,1.1,2.3,2.5s-1,2.5-2.3,2.5s-2.3-1.1-2.3-2.5C391.4,233.4,392.4,232.3,393.7,232.3z"/>
<path class="st9" d="M393.7,232.3c1.3,0,2.3,1.1,2.3,2.5s-1,2.5-2.3,2.5s-2.3-1.1-2.3-2.5C391.4,233.4,392.4,232.3,393.7,232.3z"/>
<path class="st5" d="M316,187.3c1.3,0,2.3,1.1,2.3,2.5s-1,2.5-2.3,2.5s-2.3-1.1-2.3-2.5S314.8,187.3,316,187.3z"/>
<path class="st9" d="M316,187.3c1.3,0,2.3,1.1,2.3,2.5s-1,2.5-2.3,2.5s-2.3-1.1-2.3-2.5S314.8,187.3,316,187.3z"/>
<path class="st10" d="M316,177.4c1.3,0,2.3,1.1,2.3,2.5s-1,2.5-2.3,2.5s-2.3-1.1-2.3-2.5S314.8,177.4,316,177.4z"/>
<path class="st10" d="M316,102.4c1.3,0,2.3,1.1,2.3,2.5s-1,2.5-2.3,2.5s-2.3-1.1-2.3-2.5S314.8,102.4,316,102.4z"/>
<path class="st10" d="M466.8,528.9c1.3,0,2.3,1.3,2.3,2.8s-1,2.8-2.3,2.8s-2.3-1.3-2.3-2.8S465.5,528.9,466.8,528.9z"/>
<path class="st10" d="M393.7,528.9c1.3,0,2.3,1.3,2.3,2.8s-1,2.8-2.3,2.8s-2.3-1.3-2.3-2.8S392.4,528.9,393.7,528.9z"/>
<path class="st10" d="M343.4,528.9c1.3,0,2.3,1.3,2.3,2.8s-1,2.8-2.3,2.8s-2.3-1.3-2.3-2.8S342.2,528.9,343.4,528.9z"/>
<path class="st10" d="M443.9,756.6c1.3,0,2.3,1.3,2.3,2.8s-1,2.8-2.3,2.8s-2.3-1.3-2.3-2.8S442.7,756.6,443.9,756.6z"/>
<path class="st5" d="M398.3,756.6c1.3,0,2.3,1.3,2.3,2.8s-1,2.8-2.3,2.8s-2.3-1.3-2.3-2.8S397,756.6,398.3,756.6z"/>
<path class="st9" d="M398.3,756.6c1.3,0,2.3,1.3,2.3,2.8s-1,2.8-2.3,2.8s-2.3-1.3-2.3-2.8S397,756.6,398.3,756.6z"/>
<path class="st5" d="M393.7,650.1c1.3,0,2.3,1.3,2.3,2.8c0,1.6-1,2.8-2.3,2.8s-2.3-1.3-2.3-2.8C391.4,651.4,392.4,650.1,393.7,650.1
	z"/>
<path class="st9" d="M393.7,650.1c1.3,0,2.3,1.3,2.3,2.8c0,1.6-1,2.8-2.3,2.8s-2.3-1.3-2.3-2.8C391.4,651.4,392.4,650.1,393.7,650.1
	z"/>
<path class="st5" d="M466.8,650.1c1.3,0,2.3,1.3,2.3,2.8c0,1.6-1,2.8-2.3,2.8s-2.3-1.3-2.3-2.8C464.5,651.4,465.5,650.1,466.8,650.1
	z"/>
<path class="st9" d="M466.8,650.1c1.3,0,2.3,1.3,2.3,2.8c0,1.6-1,2.8-2.3,2.8s-2.3-1.3-2.3-2.8C464.5,651.4,465.5,650.1,466.8,650.1
	z"/>
<path class="st10" d="M179,603.9c1.3,0,2.3,1.1,2.3,2.5s-1,2.5-2.3,2.5s-2.3-1.1-2.3-2.5C176.7,605.1,177.7,603.9,179,603.9z"/>
<path class="st5" d="M179,477.1c1.3,0,2.3,1.1,2.3,2.5s-1,2.5-2.3,2.5s-2.3-1.1-2.3-2.5S177.7,477.1,179,477.1z"/>
<path class="st9" d="M179,477.1c1.3,0,2.3,1.1,2.3,2.5s-1,2.5-2.3,2.5s-2.3-1.1-2.3-2.5S177.7,477.1,179,477.1z"/>
<path class="st10" d="M176.2,27.5c1.3,0,2.3,1.1,2.3,2.5s-1,2.5-2.3,2.5s-2.3-1.1-2.3-2.5S174.9,27.5,176.2,27.5z"/>
<path class="st10" d="M113.2,27.5c1.3,0,2.3,1.1,2.3,2.5s-1,2.5-2.3,2.5s-2.3-1.1-2.3-2.5S111.9,27.5,113.2,27.5z"/>
<path class="st10" d="M147,78.5c1.3,0,2.3,1.1,2.3,2.5s-1,2.5-2.3,2.5s-2.3-1.1-2.3-2.5S145.7,78.5,147,78.5z"/>
<path class="st5" d="M147,477.1c1.3,0,2.3,1.1,2.3,2.5s-1,2.5-2.3,2.5s-2.3-1.1-2.3-2.5S145.7,477.1,147,477.1z"/>
<path class="st9" d="M147,477.1c1.3,0,2.3,1.1,2.3,2.5s-1,2.5-2.3,2.5s-2.3-1.1-2.3-2.5S145.7,477.1,147,477.1z"/>
<path class="st5" d="M83,27.5c1.3,0,2.3,1.1,2.3,2.5s-1,2.5-2.3,2.5s-2.3-1.1-2.3-2.5S81.7,27.5,83,27.5z"/>
<path class="st9" d="M83,27.5c1.3,0,2.3,1.1,2.3,2.5s-1,2.5-2.3,2.5s-2.3-1.1-2.3-2.5S81.7,27.5,83,27.5z"/>
<path class="st5" d="M613,167.4c1.3,0,2.3,1.1,2.3,2.5s-1,2.5-2.3,2.5s-2.3-1.1-2.3-2.5S611.7,167.4,613,167.4z"/>
<path class="st9" d="M613,167.4c1.3,0,2.3,1.1,2.3,2.5s-1,2.5-2.3,2.5s-2.3-1.1-2.3-2.5S611.7,167.4,613,167.4z"/>
<line class="st9" x1="643.6" y1="353.7" x2="393.7" y2="353.7"/>
<ellipse class="st5" cx="643.6" cy="353.7" rx="2.3" ry="2.8"/>
<ellipse class="st9" cx="643.6" cy="353.7" rx="2.3" ry="2.8"/>
<path class="st10" d="M113.2,57.5c1.3,0,2.3,1.1,2.3,2.5s-1,2.5-2.3,2.5s-2.3-1.1-2.3-2.5C110.9,58.6,111.9,57.5,113.2,57.5z"/>
<polygon class="st5" points="292.3,644.5 301.5,644.5 301.5,667.1 296.9,678.4 292.3,667.1 "/>
<polygon class="st7" points="292.3,644.5 301.5,644.5 301.5,667.1 296.9,678.4 292.3,667.1 "/>
<polygon class="st4" points="292.3,644.5 301.5,644.5 301.5,667.1 296.9,678.4 292.3,667.1 "/>
<line class="st7" x1="292.3" y1="650.1" x2="296.9" y2="650.1"/>
<line class="st7" x1="301.5" y1="655.8" x2="296.9" y2="655.8"/>
<line class="st7" x1="292.3" y1="661.4" x2="296.9" y2="661.4"/>
<line class="st7" x1="292.3" y1="667.1" x2="296.9" y2="667.1"/>
<line class="st11" x1="296.9" y1="678.4" x2="296.9" y2="759.5"/>
<line class="st4" x1="296.9" y1="678.4" x2="296.9" y2="759.5"/>
<path class="st12" d="M359.4,304.2V346h18.3v-41.8c0-5.8-4.1-10.4-9.1-10.4C363.5,293.7,359.4,298.4,359.4,304.2z"/>
<path class="st0" d="M359.4,304.2V346h18.3v-41.8c0-5.8-4.1-10.4-9.1-10.4C363.5,293.7,359.4,298.4,359.4,304.2z"/>
<polyline class="st0" points="393.7,237.3 393.7,314.7 377.7,314.7 "/>
<polyline class="st0" points="359.4,330.1 343.4,330.1 343.4,288.9 "/>
<polygon class="st5" points="339.3,250.6 348.5,250.6 348.5,276.2 343.9,289.1 339.3,276.2 "/>
<polygon class="st7" points="339.3,250.6 348.5,250.6 348.5,276.2 343.9,289.1 339.3,276.2 "/>
<polygon class="st4" points="339.3,250.6 348.5,250.6 348.5,276.2 343.9,289.1 339.3,276.2 "/>
<line class="st7" x1="339.3" y1="256.9" x2="343.9" y2="256.9"/>
<line class="st7" x1="348.5" y1="263.4" x2="343.9" y2="263.4"/>
<line class="st7" x1="339.3" y1="269.9" x2="343.9" y2="269.9"/>
<line class="st7" x1="339.3" y1="276.2" x2="343.9" y2="276.2"/>
<g>
	<g>
		<defs>
			<rect id="SVGID_1_" x="318.3" y="729.5" width="54.8" height="49.9"/>
		</defs>
		<clipPath id="SVGID_2_">
			<use xlink:href="#SVGID_1_"  style="overflow:visible;"/>
		</clipPath>
		<g class="st13">
			<g>
				<defs>
					<rect id="SVGID_3_" x="318.3" y="729.5" width="54.8" height="49.9"/>
				</defs>
				<clipPath id="SVGID_4_">
					<use xlink:href="#SVGID_3_"  style="overflow:visible;"/>
				</clipPath>
				<path class="st14" d="M466.8,459.2v300.2H354.9c-0.1-2.1-1.2-10.1-8.9-10.1s-8.8,8-8.9,10.1"/>
			</g>
		</g>
	</g>
</g>
<polyline class="st4" points="373.1,759.4 466.8,759.5 466.8,655.8 "/>
<polyline class="st15" points="498.8,654.9 498.8,812.7 25.3,812.7 "/>
<line class="st15" x1="344.7" y1="654.1" x2="344.7" y2="812.7"/>
<polyline class="st16" points="49.2,812.7 49.2,566.8 121.7,566.8 "/>
<path class="st12" d="M16.2,802.7c5,0,9.1,4.5,9.1,10s-4.1,10-9.1,10s-9.1-4.5-9.1-10C7.1,807.2,11.2,802.7,16.2,802.7z"/>
<path class="st15" d="M16.2,802.7c5,0,9.1,4.5,9.1,10s-4.1,10-9.1,10s-9.1-4.5-9.1-10C7.1,807.2,11.2,802.7,16.2,802.7z"/>
<g>
	<g>
		<defs>
			<rect id="SVGID_5_" x="54.4" y="536.9" width="45.7" height="59.9"/>
		</defs>
		<clipPath id="SVGID_6_">
			<use xlink:href="#SVGID_5_"  style="overflow:visible;"/>
		</clipPath>
		<g class="st17">
			<g>
				<defs>
					<rect id="SVGID_7_" x="54.4" y="536.9" width="45.7" height="59.9"/>
				</defs>
				<clipPath id="SVGID_8_">
					<use xlink:href="#SVGID_7_"  style="overflow:visible;"/>
				</clipPath>
				<path class="st18" d="M81.8,576.3c-1.9-0.2-9.3-1.3-9.3-9.7s7.3-9.6,9.2-9.7"/>
			</g>
		</g>
	</g>
</g>
<polyline class="st4" points="81.5,576.6 81.5,759.5 256.6,759.5 "/>
<polyline class="st4" points="110.9,60 82.1,60 82.1,556.7 "/>
<line class="st4" x1="179" y1="608.9" x2="179" y2="759.5"/>
<polyline class="st4" points="313.7,104.9 179,104.9 179,477.1 "/>
</svg>
